<?xml version="1.0" encoding="utf-8"?>
<!-- Generator: Adobe Illustrator 26.0.3, SVG Export Plug-In . SVG Version: 6.00 Build 0)  -->
<svg version="1.1" id="Layer_1" xmlns="http://www.w3.org/2000/svg" xmlns:xlink="http://www.w3.org/1999/xlink" x="0px" y="0px"
	 viewBox="0 0 25 25" style="enable-background:new 0 0 25 25;" xml:space="preserve">
<style type="text/css">
	.st0{fill:#FFFFFF;}
</style>
<path class="st0" d="M25.4,12.5L25.4,12.5c0,0.6-0.2,1.1-0.4,1.5l0,0c-0.3,0.4-0.7,0.8-1.1,1l0,0c0.1,0.4,0.2,0.9,0.2,1.3v0v0
	c0,1.6-0.6,3-1.5,4.1l0,0c-1.1,1.3-2.5,2.3-4.1,2.9l-0.1,0c-1.6,0.7-3.5,1.1-5.5,1.1c-0.1,0-0.1,0-0.2,0h0c0,0-0.1,0-0.1,0
	c-2,0-3.9-0.4-5.6-1.1l0.1,0c-1.6-0.7-3-1.7-4.1-2.9l0,0c-0.9-1.1-1.5-2.5-1.5-4.1v0c0,0,0,0,0,0c0-0.5,0.1-0.9,0.2-1.4l0,0
	c-0.5-0.2-0.9-0.6-1.2-1l0,0c-0.3-0.4-0.4-1-0.4-1.5c0-0.8,0.3-1.5,0.8-2C1.3,10,2,9.7,2.8,9.7h0h0h0c0.8,0,1.5,0.3,2,0.9l0,0
	c2-1.4,4.6-2.3,7.3-2.3h0l1.6-7.4c0-0.1,0.1-0.2,0.2-0.3l0,0c0.1-0.1,0.2-0.1,0.3-0.1c0,0,0.1,0,0.1,0l0,0l5.2,1.1
	c0.2-0.4,0.4-0.6,0.8-0.8l0,0c0.3-0.2,0.7-0.3,1.1-0.3c0.6,0,1.1,0.2,1.5,0.6c0.4,0.4,0.6,0.9,0.6,1.5v0v0v0c0,0.6-0.2,1.1-0.6,1.5
	l0,0c-0.4,0.4-0.9,0.6-1.5,0.6c-0.6,0-1.1-0.2-1.5-0.6c-0.4-0.4-0.6-0.9-0.6-1.5c0,0,0,0,0,0v0l-4.7-1l-1.5,6.7
	c2.7,0,5.3,0.9,7.4,2.3l0,0c0.5-0.5,1.2-0.9,2-0.9c0.8,0,1.5,0.3,2,0.8C25.1,11,25.4,11.7,25.4,12.5L25.4,12.5L25.4,12.5L25.4,12.5z
	 M5.9,15.3L5.9,15.3c0,0.6,0.2,1.1,0.6,1.5c0.4,0.4,0.9,0.6,1.5,0.6h0h0c1.2,0,2.1-1,2.1-2.1c0,0,0,0,0,0c0-0.6-0.2-1.1-0.6-1.5l0,0
	c-0.4-0.4-0.9-0.6-1.5-0.6c0,0,0,0,0,0h0C6.9,13.2,5.9,14.2,5.9,15.3L5.9,15.3L5.9,15.3z M17.4,20.4c0.1-0.1,0.2-0.2,0.2-0.4
	s-0.1-0.3-0.2-0.4c-0.1-0.1-0.2-0.1-0.3-0.1c0,0,0,0,0,0h0c0,0,0,0,0,0c-0.1,0-0.3,0.1-0.4,0.1c-0.5,0.4-1,0.7-1.7,0.9l0,0
	c-0.7,0.2-1.5,0.3-2.3,0.3s-1.6-0.1-2.3-0.3l0.1,0c-0.7-0.1-1.3-0.4-1.7-0.9l0,0c-0.1-0.1-0.2-0.1-0.4-0.1c0,0,0,0,0,0c0,0,0,0,0,0
	c-0.1,0-0.3,0.1-0.3,0.1c-0.1,0.1-0.2,0.2-0.2,0.4v0v0c0,0.1,0.1,0.3,0.2,0.4c0.5,0.4,1,0.8,1.7,1l0,0c0.5,0.2,1.1,0.3,1.7,0.4l0,0
	c0.4,0,0.9,0.1,1.3,0.1c0.4,0,0.8,0,1.3-0.1c0.6-0.1,1.2-0.2,1.8-0.4l-0.1,0C16.4,21.1,17,20.8,17.4,20.4L17.4,20.4L17.4,20.4z
	 M17.4,17.5L17.4,17.5c0.6,0,1.1-0.2,1.5-0.6l0,0c0.4-0.4,0.6-0.9,0.6-1.5c0,0,0,0,0,0v0c0-1.2-1-2.1-2.1-2.1h0c0,0,0,0,0,0
	c-0.6,0-1.1,0.2-1.5,0.6c-0.4,0.4-0.6,0.9-0.6,1.5v0v0C15.3,16.5,16.2,17.4,17.4,17.5L17.4,17.5z"/>
</svg>
